Coordinates
version=1
nRows=14
nColumns=28
inDegrees=yes

Units are S.I. units (second, meters, Newtons, ...)
Angles are in degrees.

endheader
time	pelvis_tilt	pelvis_list	pelvis_rotation	pelvis_tx	pelvis_ty	pelvis_tz	hip_flexion_r	hip_adduction_r	hip_rotation_r	knee_angle_r	ankle_angle_r	subtalar_angle_r	mtp_angle_r	hip_flexion_l	hip_adduction_l	hip_rotation_l	knee_angle_l	socket_flexion	socket_adduction	socket_rotation	socket_tx	socket_ty	socket_tz	foot_flex	lumbar_extension	lumbar_bending	lumbar_rotation
      0.31666667	     -2.72299379	     -0.50089597	      0.59242881	     -0.46499712	      1.02281074	      0.28667611	     20.09897752	     -0.82685997	     -5.69225290	    -66.65705148	     10.83157884	    -12.27113442	     -5.20723108	      6.92834837	      1.90459724	     11.74801278	     -7.25352870	      0.00000000	      0.00000000	      0.00000000	      0.00000000	     -0.00826049	      0.00000000	     -1.11102661	     -7.90999225	     -2.37095669	     -0.51343330
      0.32083333	     -2.67234684	     -0.67552888	      0.71265883	     -0.45959600	      1.02338813	      0.28660279	     20.54637557	     -0.66585821	     -5.77489179	    -66.20800134	     11.27671077	    -12.05391446	     -5.29720030	      6.47772942	      1.69891580	     11.85077805	     -7.11413091	      0.00000000	      0.00000000	      0.00000000	      0.00000000	     -0.00828562	      0.00000000	     -0.99264244	     -7.96247385	     -2.14532837	     -0.60458277
      0.32500000	     -2.64418373	     -0.67720052	      0.80119651	     -0.45456360	      1.02388731	      0.28655161	     21.09477369	     -0.69725960	     -5.79318394	    -65.82586658	     11.34450162	    -12.04149995	     -5.29537801	      6.12381039	      1.69728203	     11.86563278	     -7.07611321	      0.00000000	      0.00000000	      0.00000000	      0.00000000	     -0.00807533	      0.00000000	     -0.92548029	     -8.06875633	     -2.12995258	     -0.61543254
      0.32916667	     -2.50906858	     -0.97525438	      1.09581805	     -0.44878263	      1.02462973	      0.28614364	     21.27848247	     -0.49340989	     -6.11209076	    -65.12042116	     12.04793102	    -11.41485900	     -5.41618112	      5.54844543	      1.37445227	     12.18783676	     -6.88334797	      0.00000000	      0.00000000	      0.00000000	      0.00000000	     -0.00814059	      0.00000000	     -0.77264356	     -8.12531274	     -1.72096462	     -0.95121417
      0.33333333	     -2.48671289	     -0.97070963	      1.18152842	     -0.44379580	      1.02501040	      0.28611116	     21.82143843	     -0.53203616	     -6.13084152	    -64.69402831	     12.12444557	    -11.40795622	     -5.41588488	      5.19998438	      1.37303807	     12.20650241	     -6.83639304	      0.00000000	      0.00000000	      0.00000000	      0.00000000	     -0.00800748	      0.00000000	     -0.70101943	     -8.23882129	     -1.71421531	     -0.96632441
      0.33750000	     -2.17908576	     -1.22578855	      1.60299812	     -0.43809885	      1.02599631	      0.28553233	     21.76557329	     -0.43180147	     -6.58250121	    -63.88741292	     12.94409021	    -10.78828733	     -6.02436551	      4.45589477	      1.09322235	     12.66368339	     -6.63994431	      0.00000000	      0.00000000	      0.00000000	      0.00000000	     -0.00794379	      0.00000000	     -0.54168987	     -8.51193939	     -1.32374991	     -1.57526625
      0.34166667	     -2.17520935	     -1.25765739	      1.69804587	     -0.43275697	      1.02640606	      0.28556032	     22.21070700	     -0.41978814	     -6.61244785	    -63.26439866	     13.13595952	    -10.76470044	     -6.04759029	      4.07255694	      1.03568457	     12.70198130	     -6.52440636	      0.00000000	      0.00000000	      0.00000000	      0.00000000	     -0.00773118	      0.00000000	     -0.42138080	     -8.50161199	     -1.29364896	     -1.58666377
      0.34583333	     -2.15574362	     -1.35678472	      1.83197268	     -0.42737230	      1.02681887	      0.28554052	     22.59615866	     -0.34617297	     -6.70037077	    -62.56402808	     13.43224586	    -10.70167548	     -6.07743870	      3.67283509	      0.90273316	     12.79845243	     -6.40395323	      0.00000000	      0.00000000	      0.00000000	      0.00000000	     -0.00760666	      0.00000000	     -0.30214729	     -8.49719338	     -1.16806871	     -1.63877528
      0.35000000	     -2.12450622	     -1.45911522	      1.98230400	     -0.42200282	      1.02720345	      0.28544024	     22.94808779	     -0.28836452	     -6.80831967	    -61.81929662	     13.69787741	    -10.64249732	     -6.11723347	      3.27003225	      0.77224262	     12.90590926	     -6.29609298	      0.00000000	      0.00000000	      0.00000000	      0.00000000	     -0.00752645	      0.00000000	     -0.18309399	     -8.50663529	     -1.04439584	     -1.71839766
      0.35416667	     -1.95263116	     -1.79918112	      2.31093581	     -0.41668259	      1.02774187	      0.28498755	     23.06809754	     -0.06010519	     -7.19701493	    -60.93278807	     14.14529665	    -10.45745763	     -6.37220248	      2.74630954	      0.38692106	     13.23300314	     -6.19450271	      0.00000000	      0.00000000	      0.00000000	      0.00000000	     -0.00778760	      0.00000000	     -0.09113020	     -8.69456304	     -0.55227042	     -2.04879173
      0.35833333	     -1.94151191	     -1.76991750	      2.40656555	     -0.41140065	      1.02806111	      0.28503887	     23.44601611	     -0.12702420	     -7.23631721	    -60.16578865	     14.26432507	    -10.47545171	     -6.41859185	      2.37381704	      0.39130318	     13.26675732	     -6.11218360	      0.00000000	      0.00000000	      0.00000000	      0.00000000	     -0.00751275	      0.00000000	      0.03161187	     -8.69210101	     -0.59218542	     -2.10020134
      0.36250000	     -1.92604000	     -1.78242403	      2.53330110	     -0.40610444	      1.02834582	      0.28506503	     23.78585395	     -0.15482417	     -7.31423839	    -59.33762907	     14.45579453	    -10.52151504	     -6.46943497	      1.99362193	      0.34565613	     13.33551221	     -6.01576561	      0.00000000	      0.00000000	      0.00000000	      0.00000000	     -0.00729385	      0.00000000	      0.15760900	     -8.69293285	     -0.57697481	     -2.16938062
      0.36666667	     -1.86655428	     -1.90748937	      2.72785928	     -0.40076109	      1.02867504	      0.28495321	     24.01930560	     -0.09190836	     -7.50518891	    -58.41419279	     14.74901341	    -10.62652904	     -6.58696468	      1.56875147	      0.17530062	     13.50707268	     -5.90517090	      0.00000000	      0.00000000	      0.00000000	      0.00000000	     -0.00724030	      0.00000000	      0.28982643	     -8.73147803	     -0.41573995	     -2.31573271
      0.37083333	     -1.59223602	     -2.25596723	      3.12147822	     -0.39557003	      1.02925619	      0.28438587	     23.94474379	      0.12725992	     -7.97152086	    -57.31686868	     14.97685598	    -10.83045595	     -7.19286915	      0.96731790	     -0.23434038	     13.88364292	     -5.82502803	      0.00000000	      0.00000000	      0.00000000	      0.00000000	     -0.00754853	      0.00000000	      0.38233323	     -9.04523191	      0.12159113	     -2.81538539
